<svg width="228" height="29" viewBox="0 0 228 29" fill="none" xmlns="http://www.w3.org/2000/svg">
<path d="M11.94 0.949999C11.73 4.88 12.39 18.17 0.45 25.1C1.98 26.12 3.39 27.47 4.17 28.61C9.96 24.83 13.08 19.55 14.79 14.51C16.59 19.76 19.95 25.34 26.34 28.58C27 27.38 28.29 25.91 29.7 24.86C18.57 19.58 17.13 7.25 16.89 2.93C16.92 2.18 16.95 1.52 16.98 0.949999H11.94Z" fill="#F1B104"/>
<path d="M32.58 26H37.68V18.59C37.68 15.89 37.23 12.83 36.99 10.34H37.14L39.33 15.23L44.85 26H50.31V3.65H45.21V11.06C45.21 13.73 45.66 16.94 45.93 19.31H45.78L43.59 14.36L38.04 3.65H32.58V26ZM62.4802 26.42C66.8002 26.42 70.8202 23.12 70.8202 17.45C70.8202 11.81 66.8002 8.51 62.4802 8.51C58.1302 8.51 54.1102 11.81 54.1102 17.45C54.1102 23.12 58.1302 26.42 62.4802 26.42ZM62.4802 22.1C60.4702 22.1 59.5702 20.3 59.5702 17.45C59.5702 14.63 60.4702 12.83 62.4802 12.83C64.4602 12.83 65.3602 14.63 65.3602 17.45C65.3602 20.3 64.4602 22.1 62.4802 22.1ZM81.5817 26.42C85.9017 26.42 89.9217 23.12 89.9217 17.45C89.9217 11.81 85.9017 8.51 81.5817 8.51C77.2317 8.51 73.2117 11.81 73.2117 17.45C73.2117 23.12 77.2317 26.42 81.5817 26.42ZM81.5817 22.1C79.5717 22.1 78.6717 20.3 78.6717 17.45C78.6717 14.63 79.5717 12.83 81.5817 12.83C83.5617 12.83 84.4617 14.63 84.4617 17.45C84.4617 20.3 83.5617 22.1 81.5817 22.1ZM93.2733 26H98.6133V14.6C99.6333 13.61 100.353 13.07 101.553 13.07C102.903 13.07 103.533 13.73 103.533 16.1V26H108.873V15.44C108.873 11.18 107.283 8.51 103.563 8.51C101.253 8.51 99.5133 9.68 98.1033 11.06H98.0133L97.6233 8.93H93.2733V26ZM116.289 26H119.589L122.859 12.74C123.219 11 123.609 9.41 123.969 7.73H124.089C124.449 9.41 124.779 11 125.169 12.74L128.499 26H131.829L136.389 3.98H133.719L131.409 15.98C130.989 18.32 130.569 20.69 130.149 23.09H129.999C129.489 20.69 128.979 18.32 128.439 15.98L125.379 3.98H122.829L119.799 15.98C119.259 18.35 118.719 20.72 118.209 23.09H118.089C117.669 20.72 117.219 18.35 116.799 15.98L114.489 3.98H111.639L116.289 26ZM146.527 26.39C148.747 26.39 150.487 25.64 151.927 24.71L150.937 22.91C149.737 23.72 148.447 24.2 146.857 24.2C143.767 24.2 141.637 21.98 141.457 18.5H152.437C152.497 18.11 152.557 17.54 152.557 16.94C152.557 12.29 150.217 9.29 146.077 9.29C142.297 9.29 138.727 12.59 138.727 17.87C138.727 23.24 142.207 26.39 146.527 26.39ZM141.427 16.52C141.757 13.34 143.797 11.48 146.107 11.48C148.657 11.48 150.157 13.25 150.157 16.52H141.427ZM159.85 26.39C161.86 26.39 163.69 25.34 165.25 24.05H165.34L165.58 26H167.83V15.98C167.83 11.96 166.15 9.29 162.19 9.29C159.58 9.29 157.27 10.46 155.77 11.42L156.85 13.31C158.14 12.44 159.85 11.57 161.74 11.57C164.41 11.57 165.1 13.58 165.1 15.68C158.17 16.46 155.08 18.23 155.08 21.77C155.08 24.71 157.12 26.39 159.85 26.39ZM160.63 24.2C159.01 24.2 157.75 23.45 157.75 21.59C157.75 19.49 159.61 18.14 165.1 17.48V22.04C163.51 23.45 162.22 24.2 160.63 24.2ZM177.724 26.39C178.714 26.39 179.794 26.09 180.724 25.79L180.184 23.75C179.644 23.96 178.894 24.17 178.324 24.17C176.434 24.17 175.804 23.03 175.804 21.02V11.93H180.214V9.71H175.804V5.12H173.524L173.194 9.71L170.644 9.86V11.93H173.074V20.96C173.074 24.2 174.244 26.39 177.724 26.39ZM183.903 26H186.633V14.18C188.283 12.53 189.423 11.69 191.103 11.69C193.263 11.69 194.193 12.98 194.193 16.04V26H196.923V15.68C196.923 11.51 195.363 9.29 191.943 9.29C189.723 9.29 188.043 10.52 186.543 12.02L186.633 8.66V2.12H183.903V26ZM208.695 26.39C210.915 26.39 212.655 25.64 214.095 24.71L213.105 22.91C211.905 23.72 210.615 24.2 209.025 24.2C205.935 24.2 203.805 21.98 203.625 18.5H214.605C214.665 18.11 214.725 17.54 214.725 16.94C214.725 12.29 212.385 9.29 208.245 9.29C204.465 9.29 200.895 12.59 200.895 17.87C200.895 23.24 204.375 26.39 208.695 26.39ZM203.595 16.52C203.925 13.34 205.965 11.48 208.275 11.48C210.825 11.48 212.325 13.25 212.325 16.52H203.595ZM218.737 26H221.467V15.53C222.547 12.74 224.227 11.78 225.577 11.78C226.237 11.78 226.627 11.84 227.167 12.05L227.677 9.65C227.167 9.38 226.657 9.29 225.937 9.29C224.107 9.29 222.457 10.61 221.317 12.68H221.227L220.987 9.71H218.737V26Z" fill="black"/>
</svg>
